<?xml version="1.0" encoding="UTF-8"?>
<svg id="Layer_1" xmlns="http://www.w3.org/2000/svg" version="1.1" viewBox="0 0 3271.48 3271.48">
  <!-- Generator: Adobe Illustrator 29.5.1, SVG Export Plug-In . SVG Version: 2.1.0 Build 141)  -->
  <defs>
    <style>
      .st0 {
        fill: #fff;
      }

      .st1 {
        fill: #416f41;
      }
    </style>
  </defs>
  <circle class="st1" cx="1635.74" cy="1635.74" r="1600.98"/>
  <path class="st0" d="M2177.19,1805.66c-32.22,38.12-65.38,68.18-106.96,96.15-30.56,20.56-70.23,40.76-89.65,73.54-25.16,42.48,11.73,100.5,30.49,138.31,22.09,44.51,42.54,92.22,81.98,124.48,56.3,46.05,133.11,48.08,200.06,68,148.99,44.33,241.55,169.14,285.14,312.49,23.17,76.2,1.32,95.38-74.32,101.65-264.39,21.91-594.34,22.76-764.56-210.71-108.27-125.48-148.04-398.54-296.43-452.89-56.85-6.72-262.03-7.62-291.29,45.07-42.42,90.3,14.21,549.61-21.95,596.88-25.81,33.75-88.42,16.99-121.82,5.29-454.99-152.02-410.59-878.55,11.78-1043.57,233.25-114.47,631.85,76.27,834.42-140.38,133.67-175.64,59.92-468.95-165.89-521.83-63.38-14.84-140.83-7.06-205.6-6.6-69.2.49-138.35,3.03-207.49,5.66-145.53,5.55-291.43,11.68-436.92,1.71-48.15-3.3-96.99-15.73-98.51-72.11-1.72-63.63,39.13-136.67,75.26-187.26,101.37-141.9,280.15-182.71,444.5-193.11,105.74-6.69,211.96-5.8,317.57,2.62,103.19,8.22,211.67,18.04,309.45,53.11,2.94,1.06,5.89,2.11,8.81,3.24,479.98,185.45,609.33,812.9,281.92,1200.25Z"/>
</svg>